<svg xmlns="http://www.w3.org/2000/svg" xmlns:xlink="http://www.w3.org/1999/xlink" version="1.1" x="0px" y="0px" viewBox="0 0 1000 1250" enable-background="new 0 0 1000 1000" xml:space="preserve" data-creator="Created by Alvaro Cabrera -- from the Noun Project">
<path d="M831.4,648c-62.5,10.6-128.8,3.2-190.8-25.4c-163.7-75.4-235.3-269.2-159.9-432.9c15.7-34.1,36.6-64.3,61.3-89.9  c-102.6,17.4-195.2,83.6-242,185.3c-75.4,163.7-3.8,357.5,159.9,432.9C589.4,777.7,737.8,745.3,831.4,648z M111.9,258.8l-8.5-84.1  l-8.5,84.1l-84.1,8.5l84.1,8.5l8.5,84.1l8.5-84.1l84.1-8.5L111.9,258.8z M261,87.9l-5.5-54.1l-5.5,54.1L196,93.4l54.1,5.5l5.5,54.1  l5.5-54.1l54.1-5.5L261,87.9z M852.6,778.6l-8.5,84.1l-84.1,8.5l84.1,8.5l8.5,84.1l8.5-84.1l84.1-8.5l-84.1-8.5L852.6,778.6z   M928,756.8l5.5-54.1l54.1-5.5l-54.1-5.5l-5.5-54.1l-5.5,54.1l-54.1,5.5l54.1,5.5L928,756.8z M651.6,811.7l-5.5,54.1l-54.1,5.5  l54.1,5.5l5.5,54.1l5.5-54.1l54.1-5.5l-54.1-5.5L651.6,811.7z M179,418l-5.5,54.1l-54.1,5.5l54.1,5.5l5.5,54.1l5.5-54.1l54.1-5.5  l-54.1-5.5L179,418z"/>
</svg>