<svg xmlns="http://www.w3.org/2000/svg" xmlns:xlink="http://www.w3.org/1999/xlink" xml:space="preserve" style="shape-rendering:geometricPrecision;text-rendering:geometricPrecision;image-rendering:optimizeQuality;" viewBox="0 0 6.1568 7.6983749999999995" x="0px" y="0px" fill-rule="evenodd" clip-rule="evenodd"><defs><style type="text/css">
   
    .fil0 {fill:black;fill-rule:nonzero}
   
  </style></defs><g><path class="fil0" d="M2.82275 0.203624c9.99627e-005,0.411546 0.0613771,0.866576 -0.0624767,1.25973 -0.0131951,-0.0671749 -0.578284,-1.99186 -0.433238,-1.17146 0.072273,0.408647 0.211721,0.837387 0.157241,1.25153 -0.0250906,-0.0649757 -0.915258,-1.86031 -0.630065,-1.0785 0.142147,0.389854 0.353768,0.787906 0.372161,1.20515 -0.0361865,-0.0599776 -1.22434,-1.67268 -0.807798,-0.952644 0.207722,0.359266 0.485419,0.714533 0.575785,1.12228 -0.0460828,-0.0527803 -1.49624,-1.43486 -0.960941,-0.797902 0.2669,0.317681 0.602075,0.619369 0.761915,1.00512 -0.0543797,-0.0438836 -1.72266,-1.15317 -1.08489,-0.618869 0.317981,0.2665 0.700538,0.505411 0.924855,0.85758 -0.0611772,-0.0337874 -1.89679,-0.836388 -1.17586,-0.421043 0.359466,0.207223 0.77761,0.37606 1.0597,0.683945 -0.0657754,-0.0224916 -2.01325,-0.494515 -1.23114,-0.210521 0.390054,0.141747 0.83109,0.235412 1.16247,0.489617 -0.0702738,-0.0109959 -2.06743,-0.136949 -1.24903,0.00639761 0.408747,0.0717732 0.859279,0.0874673 1.22974,0.280295 -0.0724729,0.00139948 -2.05863,0.224516 -1.22884,0.223217 0.411346,-0.000399851 0.866776,-0.0613771 1.25963,0.0624767 -0.0724729,0.0142947 -1.98726,0.578684 -1.17136,0.433238 0.408447,-0.0724729 0.837387,-0.211621 1.25133,-0.157141 -0.0697739,0.0269899 -1.85581,0.914858 -1.0783,0.629965 0.389555,-0.142347 0.787906,-0.353668 1.20495,-0.372061 -0.064176,0.0387855 -1.66868,1.22324 -0.952444,0.807698 0.358966,-0.207822 0.714633,-0.485219 1.12218,-0.575685 -0.0575785,0.0502812 -1.43007,1.49394 -0.797902,0.960841 0.317381,-0.2671 0.619569,-0.601975 1.00522,-0.761816 -0.0476822,0.0590779 -1.14907,1.71966 -0.618969,1.08479 0.266201,-0.318081 0.505611,-0.700338 0.85758,-0.924755 -0.037586,0.0682745 -0.831789,1.89189 -0.421143,1.17576 0.206823,-0.359566 0.376359,-0.77751 0.684045,-1.0596 -0.0258903,0.0758717 -0.489817,2.00625 -0.210621,1.23104 0.141147,-0.389954 0.235712,-0.83099 0.489717,-1.16217 -0.0124953,0.0801701 -0.13375,2.06003 0.00629765,1.24873 0.0712734,-0.408547 0.0877672,-0.859179 0.280395,-1.22944 0.0015994,0.0814696 0.226216,2.05153 0.223117,1.22864 -0.000799701,-0.410947 -0.0610772,-0.866976 0.0626766,-1.25953 0.015994,0.0815695 0.579084,1.97996 0.433038,1.17126 -0.0728728,-0.408148 -0.211421,-0.837487 -0.156941,-1.25123 0.0305886,0.0790705 0.913959,1.84811 0.629765,1.0782 -0.141447,-0.385756 -0.353768,-0.793904 -0.371861,-1.20495 0.0436837,0.072273 1.22124,1.66158 0.807498,0.952444 -0.206223,-0.355367 -0.486418,-0.720431 -0.575485,-1.12208 0.0560791,0.064276 1.49094,1.42387 0.960641,0.797802 -0.264801,-0.314083 -0.604174,-0.625067 -0.761516,-1.00512 0.0655755,0.0528803 1.71596,1.14387 1.0845,0.618869 -0.315282,-0.263302 -0.703437,-0.510609 -0.924455,-0.85758 0.074872,0.0412846 1.8878,0.827991 1.17546,0.421143 -0.356267,-0.204524 -0.781408,-0.380758 -1.0593,-0.684045 0.0819694,0.0279895 2.00235,0.487218 1.23074,0.210621 -0.386356,-0.139548 -0.835488,-0.239311 -1.16197,-0.489617 0.0842685,0.0131951 2.05753,0.132351 1.24863,-0.00639761 -0.404749,-0.0703737 -0.864377,-0.0905662 -1.22934,-0.280395 0.0849683,-0.00169937 2.04943,-0.226915 1.22854,-0.223117 -0.410747,0.000999627 -0.867076,0.0609772 -1.25943,-0.0626766 0.0838687,-0.0164938 1.97866,-0.579284 1.17116,-0.433038 -0.404349,0.072273 -0.843285,0.210721 -1.25113,0.156941 0.0801701,-0.0309884 1.84771,-0.913959 1.0781,-0.629765 -0.385656,0.141447 -0.793904,0.353768 -1.20485,0.371861 0.072373,-0.0436837 1.66208,-1.22144 0.952344,-0.807498 -0.355267,0.206223 -0.720331,0.486318 -1.12198,0.575485 0.0633763,-0.0552794 1.42507,-1.49174 0.797702,-0.960641 -0.314083,0.264701 -0.624967,0.604074 -1.00492,0.761516 0.0514808,-0.0638761 1.14567,-1.71746 0.618669,-1.0845 -0.263402,0.315182 -0.510509,0.703337 -0.85738,0.924455 0.0395852,-0.0717732 0.83009,-1.89039 0.420943,-1.17546 -0.204624,0.356067 -0.380558,0.781308 -0.683745,1.0592 0.0264901,-0.0773711 0.489217,-2.00595 0.210321,-1.23064 -0.141047,0.389954 -0.235712,0.83099 -0.489717,1.16217 0.0125953,-0.08027 0.13415,-2.06123 -0.00629765,-1.24873 -0.0712734,0.408547 -0.0877672,0.859279 -0.280395,1.22954 -0.00129951,-0.0664752 -0.223317,-2.06343 -0.223317,-1.22894z"/></g><text x="0" y="21.1587" fill="#000000" font-size="5px" font-weight="bold" font-family="'Helvetica Neue', Helvetica, Arial-Unicode, Arial, Sans-serif">Created by Gatuso</text><text x="0" y="26.1587" fill="#000000" font-size="5px" font-weight="bold" font-family="'Helvetica Neue', Helvetica, Arial-Unicode, Arial, Sans-serif">from the Noun Project</text></svg>